<?xml version="1.0" encoding="UTF-8"?>
<!-- Generated by Pixelmator Pro 3.5.6 -->
<svg width="76" height="95" viewBox="0 0 76 95" xmlns="http://www.w3.org/2000/svg">
    <g id="Icons">
        <g id="XMLID727">
            <path id="XMLID1310" fill="#adc4d9" stroke="none" d="M 68.257416 44.069168 C 68.257416 38.461872 63.698086 33.892971 58.102535 33.892971 L 17.89747 33.892971 C 12.30192 33.892971 7.742582 38.461872 7.742582 44.069168 L 7.742582 81.243439 C 7.742582 86.850739 12.30192 91.41964 17.89747 91.41964 L 58.309769 91.41964 C 63.905323 91.41964 68.464661 86.850739 68.464661 81.243439 L 68.464661 44.069168 Z"/>
            <path id="XMLID1309" fill="#c0dceb" stroke="none" d="M 58.102535 34.100643 L 17.89747 34.100643 C 12.30192 34.100643 7.742582 38.669556 7.742582 44.276844 L 7.742582 49.261108 C 7.742582 43.653816 12.30192 39.084904 17.89747 39.084904 L 58.309769 39.084904 C 63.905323 39.084904 68.464661 43.653816 68.464661 49.261108 L 68.464661 44.276844 C 68.257416 38.461872 63.698086 34.100643 58.102535 34.100643 Z"/>
            <path id="XMLID1308" fill="#8ca4b8" stroke="none" d="M 68.257416 66.913696 L 44.631763 66.913696 C 40.901394 66.913696 38 63.798531 38 60.268017 L 38 34.100643 L 58.102535 34.100643 C 63.698086 34.100643 68.257416 38.669556 68.257416 44.276844 L 68.257416 66.913696 Z"/>
            <path id="XMLID1307" fill="#adc4d9" stroke="none" d="M 67.842941 41.161678 C 66.59948 37.008133 62.661869 34.100643 58.102535 34.100643 L 38 34.100643 L 38 39.084904 L 58.102535 39.084904 C 63.698086 39.084904 68.257416 43.653816 68.257416 49.261108 L 68.257416 44.276844 C 68.257416 43.030781 68.050171 41.992393 67.842941 41.161678 Z"/>
            <path id="XMLID1306" fill="none" stroke="#45413c" stroke-width="2.0746" stroke-linecap="round" stroke-linejoin="round" d="M 68.257416 44.069168 C 68.257416 38.461872 63.698086 33.892971 58.102535 33.892971 L 17.89747 33.892971 C 12.30192 33.892971 7.742582 38.461872 7.742582 44.069168 L 7.742582 81.243439 C 7.742582 86.850739 12.30192 91.41964 17.89747 91.41964 L 58.309769 91.41964 C 63.905323 91.41964 68.464661 86.850739 68.464661 81.243439 L 68.464661 44.069168 Z"/>
            <path id="XMLID1305" fill="#45413c" stroke="none" opacity="0.15" visibility="hidden" d="M 70.122604 93.496414 C 70.122604 95.216866 55.740818 96.61158 38 96.61158 C 20.259178 96.61158 5.877399 95.216866 5.877399 93.496414 C 5.877399 91.775955 20.259178 90.381256 38 90.381256 C 55.740818 90.381256 70.122604 91.775955 70.122604 93.496414 Z"/>
            <path id="XMLID1304" fill="#c0dceb" stroke="none" d="M 58.102535 90.588928 C 58.102535 92.458031 56.651833 93.911774 54.786644 93.911774 L 21.213348 93.911774 C 19.348167 93.911774 17.89747 92.458031 17.89747 90.588928 L 17.89747 78.751312 C 17.89747 76.882217 19.348167 75.428467 21.213348 75.428467 L 54.786644 75.428467 C 56.651833 75.428467 58.102535 76.882217 58.102535 78.751312 L 58.102535 90.588928 Z"/>
            <path id="XMLID1303" fill="#daedf7" stroke="none" d="M 58.102535 78.751312 C 58.102535 76.882217 56.651833 75.428467 54.786644 75.428467 L 21.213348 75.428467 C 19.348167 75.428467 17.89747 76.882217 17.89747 78.751312 L 17.89747 82.904861 C 17.89747 81.035767 19.348167 79.582016 21.213348 79.582016 L 54.786644 79.582016 C 56.651833 79.582016 58.102535 81.035767 58.102535 82.904861 L 58.102535 78.751312 Z"/>
            <path id="XMLID1302" fill="none" stroke="#45413c" stroke-width="2.0746" stroke-linecap="round" stroke-linejoin="round" d="M 58.102535 90.588928 C 58.102535 92.458031 56.651833 93.911774 54.786644 93.911774 L 21.213348 93.911774 C 19.348167 93.911774 17.89747 92.458031 17.89747 90.588928 L 17.89747 78.751312 C 17.89747 76.882217 19.348167 75.428467 21.213348 75.428467 L 54.786644 75.428467 C 56.651833 75.428467 58.102535 76.882217 58.102535 78.751312 L 58.102535 90.588928 Z"/>
            <path id="XMLID1301" fill="#ffffff" stroke="#45413c" stroke-width="2.0746" stroke-linecap="round" stroke-linejoin="round" d="M 30.539267 50.922527 C 30.539267 55.625111 26.735056 59.437302 22.042318 59.437302 C 17.349586 59.437302 13.545374 55.625111 13.545374 50.922527 C 13.545374 46.21994 17.349586 42.407749 22.042318 42.407749 C 26.735056 42.407749 30.539267 46.21994 30.539267 50.922527 Z"/>
            <path id="XMLID1300" fill="#00dba8" stroke="#45413c" stroke-width="2.0746" stroke-linecap="round" stroke-linejoin="round" d="M 26.18717 50.922527 C 26.18717 53.216469 24.331459 55.076077 22.042318 55.076077 C 19.753183 55.076077 17.89747 53.216469 17.89747 50.922527 C 17.89747 48.628582 19.753183 46.768974 22.042318 46.768974 C 24.331459 46.768974 26.18717 48.628582 26.18717 50.922527 Z"/>
            <path id="XMLID1299" fill="#ffffff" stroke="#45413c" stroke-width="2.0746" stroke-linecap="round" stroke-linejoin="round" d="M 62.454624 50.922527 C 62.454624 55.625111 58.650414 59.437302 53.95768 59.437302 C 49.264946 59.437302 45.460732 55.625111 45.460732 50.922527 C 45.460732 46.21994 49.264946 42.407749 53.95768 42.407749 C 58.650414 42.407749 62.454624 46.21994 62.454624 50.922527 Z"/>
            <path id="XMLID1298" fill="#00b8f0" stroke="#45413c" stroke-width="2.0746" stroke-linecap="round" stroke-linejoin="round" d="M 57.27356 50.922527 C 57.27356 52.757675 55.78899 54.245369 53.95768 54.245369 C 52.126369 54.245369 50.6418 52.757675 50.6418 50.922527 C 50.6418 49.087372 52.126369 47.599686 53.95768 47.599686 C 55.78899 47.599686 57.27356 49.087372 57.27356 50.922527 Z"/>
            <g id="XMLID1297">
                <path id="XMLID781" fill="#c0dceb" stroke="none" d="M 22.871294 78.751312 C 22.871294 79.210106 22.500149 79.582016 22.042318 79.582016 C 21.584496 79.582016 21.213348 79.210106 21.213348 78.751312 C 21.213348 78.292519 21.584496 77.920601 22.042318 77.920601 C 22.500149 77.920601 22.871294 78.292519 22.871294 78.751312 Z"/>
                <path id="XMLID780" fill="#45413c" stroke="none" d="M 22.042318 77.920601 C 21.627836 77.920601 21.213348 78.33596 21.213348 78.751312 C 21.213348 79.166664 21.627836 79.582016 22.042318 79.582016 C 22.456806 79.582016 22.871294 79.166664 22.871294 78.751312 C 22.871294 78.33596 22.456806 77.920601 22.042318 77.920601 Z"/>
            </g>
            <g id="XMLID1296">
                <path id="XMLID778" fill="#c0dceb" stroke="none" d="M 54.786644 78.751312 C 54.786644 79.210106 54.415508 79.582016 53.95768 79.582016 C 53.499847 79.582016 53.128708 79.210106 53.128708 78.751312 C 53.128708 78.292519 53.499847 77.920601 53.95768 77.920601 C 54.415508 77.920601 54.786644 78.292519 54.786644 78.751312 Z"/>
                <path id="XMLID777" fill="#45413c" stroke="none" d="M 53.95768 77.920601 C 53.543194 77.920601 53.128708 78.33596 53.128708 78.751312 C 53.128708 79.166664 53.543194 79.582016 53.95768 79.582016 C 54.372162 79.582016 54.786644 79.166664 54.786644 78.751312 C 54.786644 78.33596 54.372162 77.920601 53.95768 77.920601 Z"/>
            </g>
            <g id="XMLID1295">
                <path id="XMLID775" fill="#c0dceb" stroke="none" d="M 65.770508 61.929432 C 65.770508 62.388226 65.399361 62.760147 64.941536 62.760147 C 64.483711 62.760147 64.112556 62.388226 64.112556 61.929432 C 64.112556 61.470646 64.483711 61.098721 64.941536 61.098721 C 65.399361 61.098721 65.770508 61.470646 65.770508 61.929432 Z"/>
                <path id="XMLID774" fill="#45413c" stroke="none" d="M 64.941536 61.098721 C 64.527046 61.098721 64.112556 61.514084 64.112556 61.929432 C 64.112556 62.344784 64.527046 62.760147 64.941536 62.760147 C 65.356018 62.760147 65.770508 62.344784 65.770508 61.929432 C 65.770508 61.3064 65.356018 61.098721 64.941536 61.098721 Z"/>
            </g>
            <g id="XMLID1294">
                <path id="XMLID754" fill="#c0dceb" stroke="none" d="M 42.973824 61.929432 C 42.973824 62.388226 42.602684 62.760147 42.144852 62.760147 C 41.687023 62.760147 41.315884 62.388226 41.315884 61.929432 C 41.315884 61.470646 41.687023 61.098721 42.144852 61.098721 C 42.602684 61.098721 42.973824 61.470646 42.973824 61.929432 Z"/>
                <path id="XMLID753" fill="#45413c" stroke="none" d="M 42.144852 61.098721 C 41.730362 61.098721 41.315884 61.514084 41.315884 61.929432 C 41.315884 62.344784 41.730362 62.760147 42.144852 62.760147 C 42.559338 62.760147 42.973824 62.344784 42.973824 61.929432 C 42.973824 61.3064 42.766579 61.098721 42.144852 61.098721 Z"/>
            </g>
            <g id="XMLID1293">
                <path id="XMLID751" fill="#c0dceb" stroke="none" d="M 42.973824 37.423489 C 42.973824 37.882275 42.602684 38.254196 42.144852 38.254196 C 41.687023 38.254196 41.315884 37.882275 41.315884 37.423489 C 41.315884 36.964695 41.687023 36.592773 42.144852 36.592773 C 42.602684 36.592773 42.973824 36.964695 42.973824 37.423489 Z"/>
                <path id="XMLID750" fill="#45413c" stroke="none" d="M 42.144852 36.592773 C 41.730362 36.592773 41.315884 37.008133 41.315884 37.423489 C 41.315884 37.838848 41.730362 38.254196 42.144852 38.254196 C 42.559338 38.254196 42.973824 37.838848 42.973824 37.423489 C 42.973824 37.008133 42.766579 36.592773 42.144852 36.592773 Z"/>
            </g>
            <path id="XMLID1292" fill="none" stroke="#45413c" stroke-width="2.0746" stroke-linecap="round" stroke-linejoin="round" d="M 37.171032 28.078003 L 37.171032 23.093735 L 46.496948 20.601608 L 35.513084 10.425407 L 51.470772 14.578964 L 54.164921 9.179352"/>
            <path id="XMLID1291" fill="#ff6242" stroke="#45413c" stroke-width="2.0746" stroke-linecap="round" stroke-linejoin="round" d="M 59.760471 5.233475 C 59.760471 7.527412 57.904755 9.387024 55.615616 9.387024 C 53.326481 9.387024 51.470772 7.527412 51.470772 5.233475 C 51.470772 2.939529 53.326481 1.079918 55.615616 1.079918 C 57.904755 1.079918 59.760471 2.939529 59.760471 5.233475 Z"/>
            <path id="XMLID1290" fill="none" stroke="#45413c" stroke-width="2.0746" stroke-linecap="round" stroke-linejoin="round" d="M 68.257416 66.913696 L 44.631763 66.913696 C 40.901394 66.913696 38 63.798531 38 60.268017 L 38 34.100643 L 58.102535 34.100643 C 63.698086 34.100643 68.257416 38.669556 68.257416 44.276844 L 68.257416 66.913696 Z"/>
            <path id="XMLID1287" fill="none" stroke="#45413c" stroke-width="2.0746" stroke-linecap="round" stroke-linejoin="round" d="M 53.95768 44.899879 L 53.95768 47.599686"/>
            <path id="XMLID1273" fill="none" stroke="#45413c" stroke-width="2.0746" stroke-linecap="round" stroke-linejoin="round" d="M 59.967712 50.922527 L 57.27356 50.922527"/>
            <path id="XMLID1272" fill="none" stroke="#45413c" stroke-width="2.0746" stroke-linecap="round" stroke-linejoin="round" d="M 53.95768 56.737492 L 53.95768 54.245369"/>
            <path id="XMLID1271" fill="none" stroke="#45413c" stroke-width="2.0746" stroke-linecap="round" stroke-linejoin="round" d="M 48.154884 50.922527 L 50.6418 50.922527"/>
            <path id="XMLID1270" fill="#adc4d9" stroke="#45413c" stroke-width="2.0746" stroke-linecap="round" stroke-linejoin="round" d="M 49.812832 34.100643 L 26.18717 34.100643 C 26.18717 30.777809 28.881327 28.285667 31.989965 28.285667 L 43.802792 28.285667 C 47.118671 28.078003 49.812832 30.777809 49.812832 34.100643 Z"/>
            <path id="XMLID1269" fill="#ffe500" stroke="#45413c" stroke-width="2.0746" stroke-linecap="round" stroke-linejoin="round" d="M 69.915359 76.259186 L 68.257416 76.259186 L 68.257416 49.261108 L 69.915359 49.261108 C 72.609512 49.261108 74.889175 51.545555 74.889175 54.245369 L 74.889175 71.067245 C 75.096428 73.974731 72.816757 76.259186 69.915359 76.259186 Z"/>
            <path id="XMLID1268" fill="#ffe500" stroke="#45413c" stroke-width="2.0746" stroke-linecap="round" stroke-linejoin="round" d="M 6.084643 76.259186 L 7.742582 76.259186 L 7.742582 49.261108 L 6.084643 49.261108 C 3.390489 49.261108 1.11082 51.545555 1.11082 54.245369 L 1.11082 71.067245 C 0.903577 73.974731 3.183246 76.259186 6.084643 76.259186 Z"/>
        </g>
    </g>
</svg>
